HIERARCHY
ROOT Hips
{
	OFFSET 0.000000 100.481300 0.000000
	CHANNELS 6 Xposition Yposition Zposition Xrotation Yrotation Zrotation
	JOINT Spine
	{
		OFFSET -0.279200 12.230698 -2.892100
		CHANNELS 3 Xrotation Yrotation Zrotation
		JOINT Spine1
		{
			OFFSET -0.325700 14.269203 -3.374200
			CHANNELS 3 Xrotation Yrotation Zrotation
			JOINT Spine2
			{
				OFFSET -0.372300 16.307602 -0.352600
				CHANNELS 3 Xrotation Yrotation Zrotation
				JOINT Neck
				{
					OFFSET -0.418800 17.814194 8.416900
					CHANNELS 3 Xrotation Yrotation Zrotation
					JOINT Head
					{
						OFFSET 0.000000 7.031097 3.806800
						CHANNELS 3 Xrotation Yrotation Zrotation
						JOINT HeadTop_End
						{
							OFFSET 0.000000 24.646606 12.978600
							CHANNELS 3 Xrotation Yrotation Zrotation
							End Site
							{
								OFFSET 0.000000 27.854965 0.000000
							}
						}
					}
				}
				JOINT LeftShoulder
				{
					OFFSET 16.952999 14.495407 -7.737500
					CHANNELS 3 Xrotation Yrotation Zrotation
					JOINT LeftArm
					{
						OFFSET 9.308998 -2.777710 0.208600
						CHANNELS 3 Xrotation Yrotation Zrotation
						JOINT LeftForeArm
						{
							OFFSET 29.972298 0.000000 0.000000
							CHANNELS 3 Xrotation Yrotation Zrotation
							JOINT LeftHand
							{
								OFFSET 26.026505 0.000000 0.000000
								CHANNELS 3 Xrotation Yrotation Zrotation
								JOINT LeftHandThumb1
								{
									OFFSET 12.240501 -7.147949 9.207150
									CHANNELS 3 Xrotation Yrotation Zrotation
									JOINT LeftHandThumb2
									{
										OFFSET 4.138618 -2.389435 2.389433
										CHANNELS 3 Xrotation Yrotation Zrotation
										JOINT LeftHandThumb3
										{
											OFFSET 2.726913 -1.574387 1.574386
											CHANNELS 3 Xrotation Yrotation Zrotation
											JOINT LeftHandThumb4
											{
												OFFSET 3.941010 -2.275345 2.275342
												CHANNELS 3 Xrotation Yrotation Zrotation
												End Site
												{
													OFFSET -0.005798 5.087799 0.009903
												}
											}
										}
									}
								}
								JOINT LeftHandIndex1
								{
									OFFSET 24.424698 -1.985611 5.953459
									CHANNELS 3 Xrotation Yrotation Zrotation
									JOINT LeftHandIndex2
									{
										OFFSET 6.426697 0.000000 0.000000
										CHANNELS 3 Xrotation Yrotation Zrotation
										JOINT LeftHandIndex3
										{
											OFFSET 5.337898 0.000000 0.000000
											CHANNELS 3 Xrotation Yrotation Zrotation
											JOINT LeftHandIndex4
											{
												OFFSET 4.409401 0.000000 0.000000
												CHANNELS 3 Xrotation Yrotation Zrotation
												End Site
												{
													OFFSET 0.000000 4.409363 0.014373
												}
											}
										}
									}
								}
								JOINT LeftHandMiddle1
								{
									OFFSET 23.810104 0.000000 0.000000
									CHANNELS 3 Xrotation Yrotation Zrotation
									JOINT LeftHandMiddle2
									{
										OFFSET 7.176498 0.000000 0.000000
										CHANNELS 3 Xrotation Yrotation Zrotation
										JOINT LeftHandMiddle3
										{
											OFFSET 6.774902 0.000000 0.000000
											CHANNELS 3 Xrotation Yrotation Zrotation
											JOINT LeftHandMiddle4
											{
												OFFSET 5.403328 0.000000 0.000000
												CHANNELS 3 Xrotation Yrotation Zrotation
												End Site
												{
													OFFSET -0.027702 5.403244 0.017414
												}
											}
										}
									}
								}
								JOINT LeftHandRing1
								{
									OFFSET 22.908401 -0.839279 -6.020567
									CHANNELS 3 Xrotation Yrotation Zrotation
									JOINT LeftHandRing2
									{
										OFFSET 6.337502 0.000000 0.000000
										CHANNELS 3 Xrotation Yrotation Zrotation
										JOINT LeftHandRing3
										{
											OFFSET 5.779297 0.000000 0.000000
											CHANNELS 3 Xrotation Yrotation Zrotation
											JOINT LeftHandRing4
											{
												OFFSET 4.965698 0.000000 0.000000
												CHANNELS 3 Xrotation Yrotation Zrotation
												End Site
												{
													OFFSET 0.000000 4.965668 0.016186
												}
											}
										}
									}
								}
								JOINT LeftHandPinky1
								{
									OFFSET 20.037003 -1.530319 -10.950146
									CHANNELS 3 Xrotation Yrotation Zrotation
									JOINT LeftHandPinky2
									{
										OFFSET 5.254700 0.000000 0.000000
										CHANNELS 3 Xrotation Yrotation Zrotation
										JOINT LeftHandPinky3
										{
											OFFSET 4.810204 0.000000 0.000000
											CHANNELS 3 Xrotation Yrotation Zrotation
											JOINT LeftHandPinky4
											{
												OFFSET 3.647202 0.000000 0.000000
												CHANNELS 3 Xrotation Yrotation Zrotation
												End Site
												{
													OFFSET 0.000000 3.647186 0.011889
												}
											}
										}
									}
								}
							}
						}
					}
				}
				JOINT RightShoulder
				{
					OFFSET -15.141001 14.495407 -7.737500
					CHANNELS 3 Xrotation Yrotation Zrotation
					JOINT RightArm
					{
						OFFSET -9.308998 -2.777710 0.208500
						CHANNELS 3 Xrotation Yrotation Zrotation
						JOINT RightForeArm
						{
							OFFSET -29.972300 0.000000 0.000000
							CHANNELS 3 Xrotation Yrotation Zrotation
							JOINT RightHand
							{
								OFFSET -26.026505 0.000000 0.000000
								CHANNELS 3 Xrotation Yrotation Zrotation
								JOINT RightHandThumb1
								{
									OFFSET -12.240601 -7.148026 9.207092
									CHANNELS 3 Xrotation Yrotation Zrotation
									JOINT RightHandThumb2
									{
										OFFSET -4.138618 -2.389435 2.389433
										CHANNELS 3 Xrotation Yrotation Zrotation
										JOINT RightHandThumb3
										{
											OFFSET -2.726974 -1.574417 1.574421
											CHANNELS 3 Xrotation Yrotation Zrotation
											JOINT RightHandThumb4
											{
												OFFSET -3.941010 -2.275345 2.275343
												CHANNELS 3 Xrotation Yrotation Zrotation
												End Site
												{
													OFFSET 0.005814 5.087799 0.009927
												}
											}
										}
									}
								}
								JOINT RightHandIndex1
								{
									OFFSET -24.424698 -1.985657 5.953444
									CHANNELS 3 Xrotation Yrotation Zrotation
									JOINT RightHandIndex2
									{
										OFFSET -6.426697 0.000000 0.000000
										CHANNELS 3 Xrotation Yrotation Zrotation
										JOINT RightHandIndex3
										{
											OFFSET -5.337898 0.000000 0.000000
											CHANNELS 3 Xrotation Yrotation Zrotation
											JOINT RightHandIndex4
											{
												OFFSET -4.409401 0.000000 0.000000
												CHANNELS 3 Xrotation Yrotation Zrotation
												End Site
												{
													OFFSET 0.000000 4.409363 0.014408
												}
											}
										}
									}
								}
								JOINT RightHandMiddle1
								{
									OFFSET -23.810097 0.000000 0.000000
									CHANNELS 3 Xrotation Yrotation Zrotation
									JOINT RightHandMiddle2
									{
										OFFSET -7.176498 0.000000 0.000000
										CHANNELS 3 Xrotation Yrotation Zrotation
										JOINT RightHandMiddle3
										{
											OFFSET -6.774902 0.000000 0.000000
											CHANNELS 3 Xrotation Yrotation Zrotation
											JOINT RightHandMiddle4
											{
												OFFSET -5.403328 0.000000 0.000000
												CHANNELS 3 Xrotation Yrotation Zrotation
												End Site
												{
													OFFSET 0.027702 5.403244 0.017457
												}
											}
										}
									}
								}
								JOINT RightHandRing1
								{
									OFFSET -22.908302 -0.839325 -6.020576
									CHANNELS 3 Xrotation Yrotation Zrotation
									JOINT RightHandRing2
									{
										OFFSET -6.337502 0.000000 0.000000
										CHANNELS 3 Xrotation Yrotation Zrotation
										JOINT RightHandRing3
										{
											OFFSET -5.779297 0.000000 0.000000
											CHANNELS 3 Xrotation Yrotation Zrotation
											JOINT RightHandRing4
											{
												OFFSET -4.965698 0.000000 0.000000
												CHANNELS 3 Xrotation Yrotation Zrotation
												End Site
												{
													OFFSET 0.000000 4.965668 0.016226
												}
											}
										}
									}
								}
								JOINT RightHandPinky1
								{
									OFFSET -20.037003 -1.530334 -10.950259
									CHANNELS 3 Xrotation Yrotation Zrotation
									JOINT RightHandPinky2
									{
										OFFSET -5.254700 0.000000 0.000000
										CHANNELS 3 Xrotation Yrotation Zrotation
										JOINT RightHandPinky3
										{
											OFFSET -4.810204 0.000000 0.000000
											CHANNELS 3 Xrotation Yrotation Zrotation
											JOINT RightHandPinky4
											{
												OFFSET -3.647202 0.000000 0.000000
												CHANNELS 3 Xrotation Yrotation Zrotation
												End Site
												{
													OFFSET 0.000000 3.647186 0.011917
												}
											}
										}
									}
								}
							}
						}
					}
				}
			}
		}
	}
	JOINT LeftUpLeg
	{
		OFFSET 15.427100 -6.655098 0.678600
		CHANNELS 3 Xrotation Yrotation Zrotation
		JOINT LeftLeg
		{
			OFFSET 4.081073 -39.591068 13.024000
			CHANNELS 3 Xrotation Yrotation Zrotation
			JOINT LeftFoot
			{
				OFFSET -4.081074 -37.707932 -15.979700
				CHANNELS 3 Xrotation Yrotation Zrotation
				JOINT LeftToeBase
				{
					OFFSET 5.346399 -15.068900 20.645000
					CHANNELS 3 Xrotation Yrotation Zrotation
					JOINT LeftToe_End
					{
						OFFSET 2.754700 0.931300 11.300900
						CHANNELS 3 Xrotation Yrotation Zrotation
						End Site
						{
							OFFSET 0.000000 11.669021 0.000000
						}
					}
				}
			}
		}
	}
	JOINT RightUpLeg
	{
		OFFSET -15.569500 -6.655098 0.678600
		CHANNELS 3 Xrotation Yrotation Zrotation
		JOINT RightLeg
		{
			OFFSET -4.081825 -39.591045 13.023800
			CHANNELS 3 Xrotation Yrotation Zrotation
			JOINT RightFoot
			{
				OFFSET 4.081824 -37.707954 -15.979600
				CHANNELS 3 Xrotation Yrotation Zrotation
				JOINT RightToeBase
				{
					OFFSET -5.346400 -15.068900 20.645000
					CHANNELS 3 Xrotation Yrotation Zrotation
					JOINT RightToe_End
					{
						OFFSET -2.754700 0.931300 11.300900
						CHANNELS 3 Xrotation Yrotation Zrotation
						End Site
						{
							OFFSET 0.000000 11.669021 0.000000
						}
					}
				}
			}
		}
	}
}
MOTION
Frames: 4
Frame Time: 0.033333
-0.028152 215.856781 -0.063868 -4.006142 -11.425342 1.166731 2.543362 1.413512 -2.391366 0.348421 0.227792 -0.269686 0.347704 0.228362 -0.270131 1.563782 -8.962728 6.189389 11.687616 12.879122 -4.290255 0.000001 -0.000000 -0.000000 0.919794 -1.081737 -25.566213 -5.876015 -4.109572 -52.786342 -0.000006 -11.514214 -0.000019 0.807986 2.005476 10.704217 6.758208 13.176638 6.903307 17.734644 25.686289 6.026094 0.481193 13.856698 3.682155 0.000004 0.000001 0.000001 0.262454 1.886619 -15.684599 0.116390 1.263168 -10.527908 0.000034 -0.022994 0.190521 0.000001 -0.000000 -0.000000 0.525694 2.643356 -22.360323 0.156774 1.463854 -12.225208 0.000305 -0.065003 0.538604 0.000002 -0.000000 -0.000001 0.771466 3.174579 -28.466046 0.371866 2.236302 -18.880031 0.000874 -0.109758 0.909545 0.000001 -0.000000 -0.000002 3.276070 6.941789 -33.971254 0.413368 -1.711220 -20.331989 0.003892 -0.231883 1.921855 0.000003 -0.000001 -0.000005 0.638747 2.866644 19.443529 -23.575221 5.236377 57.700379 -0.000011 13.626104 0.000029 24.587515 0.615481 1.433730 0.046013 -10.751153 -6.392349 24.871620 -21.363097 -5.408749 2.999724 -12.202859 -5.018221 -0.000002 0.000002 0.000004 0.393607 -2.310513 19.182475 0.052113 -0.851409 7.004255 0.000032 0.023218 -0.190499 -0.000001 0.000001 0.000000 0.664049 -2.970293 25.069854 0.273256 -1.933758 16.084127 15.906221 -0.084547 -0.536308 0.000000 0.000003 -0.000003 0.965205 -3.541788 31.605474 0.613113 -2.859639 24.197560 19.158423 -0.192466 -0.889395 0.000002 -0.000000 -0.000000 1.593087 -4.435153 40.461313 0.254333 -1.866946 15.513718 0.003928 0.234072 -1.921077 0.000001 -0.000003 -0.000002 -6.441746 3.751206 -5.559661 12.714731 -2.791926 0.260845 11.022826 -0.491653 11.055060 -0.664676 0.000002 -0.000001 -0.000000 -0.000001 0.000000 -11.693007 -9.873378 -4.526606 16.443018 8.865185 0.391572 2.056131 7.530965 2.047200 0.089568 0.000003 -0.000002 -0.000000 0.000001 -0.000000 
0.001169 215.850479 -0.098784 -4.042897 -11.667181 1.085867 2.550330 1.391588 -2.616412 0.351041 0.224840 -0.308969 0.350376 0.225303 -0.309389 1.384794 -8.943826 5.983042 11.848957 13.061121 -4.095209 -0.000000 -0.000000 -0.000000 0.931822 -0.995183 -25.564020 -5.971132 -4.010038 -52.681929 -0.000000 -10.869209 0.000006 1.294143 2.322330 12.139708 6.758207 13.176638 6.903302 17.734644 25.686296 6.026096 0.481167 13.856704 3.682192 -0.000005 0.000001 0.000003 0.262462 1.886617 -15.684575 0.116386 1.263168 -10.527898 0.000034 -0.022994 0.190522 -0.000000 -0.000000 -0.000000 0.525697 2.643356 -22.360327 0.156778 1.463857 -12.225187 0.000303 -0.065002 0.538603 0.000002 0.000000 -0.000000 0.771471 3.174578 -28.466022 0.371870 2.236299 -18.880064 0.000872 -0.109759 0.909545 -0.000000 -0.000001 -0.000003 3.276080 6.941790 -33.971244 0.413363 -1.711220 -20.332018 0.003887 -0.231884 1.921858 0.000001 0.000000 0.000001 0.662476 2.519783 18.720632 -25.315763 6.343691 58.876306 -0.000002 10.608071 0.000018 25.345428 2.136216 0.565218 0.046010 -10.751157 -6.392355 24.871622 -21.363097 -5.408738 2.999720 -12.202853 -5.018211 0.000000 0.000002 0.000005 0.393620 -2.310516 19.182439 0.052111 -0.851416 7.004248 0.000031 0.023218 -0.190499 0.000000 0.000002 0.000000 0.664055 -2.970291 25.069854 0.273243 -1.933757 16.084127 15.906237 -0.084544 -0.536324 -0.000001 -0.000002 0.000000 0.965207 -3.541783 31.605450 0.613108 -2.859639 24.197562 19.158413 -0.192479 -0.889423 -0.000002 -0.000001 0.000000 1.593095 -4.435164 40.461289 0.254334 -1.866940 15.513728 0.003922 0.234078 -1.921080 0.000002 -0.000002 -0.000001 -6.465924 3.778050 -5.472637 12.702307 -2.639052 0.264778 11.299534 -0.455239 10.969940 -0.513517 -0.000003 -0.000002 -0.000001 0.000000 -0.000000 -11.681124 -9.749880 -4.403871 16.413187 8.865919 0.401259 1.927909 7.718183 1.925317 -0.100207 0.000001 -0.000001 0.000000 -0.000000 0.000000 
0.045448 215.829910 -0.159109 -4.135528 -11.926524 0.955352 2.578765 1.331525 -2.911921 0.358258 0.216273 -0.358924 0.357672 0.216625 -0.359295 1.291100 -8.961899 5.860365 12.011685 13.187109 -3.849293 -0.000001 0.000000 -0.000000 0.931940 -0.989323 -25.532183 -6.216314 -3.778057 -52.433074 0.000000 -10.084821 -0.000027 1.479354 2.820032 13.599437 6.758208 13.176643 6.903284 17.734639 25.686304 6.026096 0.481185 13.856701 3.682162 0.000001 -0.000000 0.000001 0.262456 1.886624 -15.684590 0.116388 1.263171 -10.527891 0.000036 -0.022995 0.190521 0.000001 0.000000 -0.000000 0.525695 2.643365 -22.360327 0.156776 1.463855 -12.225189 0.000304 -0.065004 0.538604 -0.000000 -0.000000 -0.000000 0.771468 3.174585 -28.466050 0.371867 2.236302 -18.880026 0.000875 -0.109759 0.909546 0.000001 0.000001 0.000001 3.276078 6.941787 -33.971257 0.413366 -1.711215 -20.332006 0.003887 -0.231888 1.921867 0.000002 0.000000 0.000001 0.681544 2.148618 17.821541 -27.526788 7.561345 60.324907 -0.000008 6.848758 0.000014 26.141291 3.918254 -0.656262 0.046004 -10.751154 -6.392327 24.871634 -21.363111 -5.408754 2.999725 -12.202864 -5.018205 -0.000001 0.000002 0.000005 0.393606 -2.310521 19.182474 0.052109 -0.851405 7.004246 0.000031 0.023218 -0.190498 0.000000 0.000001 -0.000000 0.664046 -2.970299 25.069871 0.273251 -1.933746 16.084127 15.906240 -0.084551 -0.536329 -0.000003 0.000000 -0.000001 0.965199 -3.541781 31.605491 0.613116 -2.859630 24.197562 19.158395 -0.192477 -0.889404 -0.000002 0.000001 0.000001 1.593090 -4.435148 40.461323 0.254326 -1.866932 15.513754 0.003916 0.234074 -1.921078 0.000001 -0.000001 0.000002 -6.410504 3.822923 -5.269115 12.863235 -2.471218 0.258471 10.835682 -0.487679 10.534377 -0.606424 -0.000003 0.000003 -0.000000 -0.000001 0.000001 -11.615935 -9.684290 -4.296516 16.410212 8.874211 0.415181 1.576617 7.897733 1.985903 -0.295009 -0.000000 0.000000 -0.000000 0.000000 -0.000000 
0.098422 215.825073 -0.225966 -4.251668 -12.128591 0.852531 2.587166 1.301960 -3.285374 0.361227 0.212532 -0.416667 0.360694 0.212768 -0.417008 1.306250 -9.025023 5.860653 12.229119 13.253477 -3.592392 0.000000 -0.000000 0.000000 0.916931 -1.070124 -25.354960 -6.496589 -3.557126 -52.151035 -0.000001 -9.453663 0.000003 1.164302 3.473933 14.548697 6.758206 13.176643 6.903276 17.734656 25.686286 6.026100 0.481175 13.856696 3.682167 -0.000002 -0.000001 0.000000 0.262457 1.886626 -15.684599 0.116386 1.263166 -10.527907 0.000034 -0.022994 0.190522 -0.000000 -0.000000 0.000000 0.525692 2.643362 -22.360361 0.156777 1.463849 -12.225204 0.000303 -0.065002 0.538604 -0.000001 -0.000001 -0.000001 0.771464 3.174577 -28.466051 0.371872 2.236306 -18.880019 0.000875 -0.109759 0.909544 -0.000001 0.000000 0.000001 3.276078 6.941786 -33.971240 0.413363 -1.711219 -20.331979 0.003889 -0.231882 1.921852 -0.000001 -0.000000 0.000001 0.689068 1.918397 17.162850 -29.303106 8.480883 61.343404 0.000008 3.971005 -0.000020 26.566055 5.332408 -1.779433 0.046013 -10.751156 -6.392333 24.871611 -21.363099 -5.408755 2.999728 -12.202855 -5.018215 -0.000000 -0.000000 0.000000 0.393608 -2.310528 19.182453 0.052109 -0.851401 7.004276 0.000030 0.023220 -0.190499 0.000003 0.000001 -0.000000 0.664054 -2.970287 25.069873 0.273243 -1.933755 16.084126 15.906227 -0.084546 -0.536306 0.000001 0.000000 0.000001 0.965204 -3.541781 31.605485 0.613110 -2.859641 24.197540 19.158407 -0.192475 -0.889414 0.000004 0.000001 0.000001 1.593088 -4.435150 40.461317 0.254328 -1.866949 15.513718 0.003927 0.234073 -1.921089 -0.000001 -0.000001 0.000001 -6.232700 3.852251 -5.046642 13.120878 -2.336145 0.239289 9.533065 -0.587209 9.779661 -0.889734 0.000001 -0.000005 -0.000000 0.000001 -0.000000 -11.522604 -9.733673 -4.316061 16.440561 8.890681 0.435880 1.019351 8.093278 2.298328 -0.486554 -0.000001 0.000001 -0.000000 0.000000 -0.000000 
